<svg width="135" height="40" fill="none" xmlns="http://www.w3.org/2000/svg"><path d="M129.037 0H4.963C2.233 0 0 2.25 0 5v30c0 2.75 2.233 5 4.963 5h124.074c2.729 0 4.963-2.25 4.963-5V5c0-2.75-2.234-5-4.963-5z" fill="#000"/><path d="M106.937 30h1.865V17.499h-1.865V30zm16.806-7.998l-2.139 5.42h-.064l-2.22-5.42h-2.009l3.329 7.575-1.899 4.214h1.946l5.131-11.789h-2.075zM113.16 28.58c-.61 0-1.463-.306-1.463-1.061 0-.965 1.062-1.335 1.979-1.335.819 0 1.206.177 1.704.418a2.262 2.262 0 01-2.22 1.978zm.226-6.851c-1.351 0-2.75.595-3.329 1.914l1.656.691c.354-.691 1.014-.917 1.705-.917.965 0 1.946.579 1.962 1.608v.129c-.338-.193-1.062-.482-1.946-.482-1.786 0-3.603.981-3.603 2.814 0 1.673 1.464 2.75 3.105 2.75 1.253 0 1.946-.562 2.379-1.222h.065v.965h1.802v-4.792c0-2.22-1.658-3.458-3.796-3.458zm-11.532 1.795H99.2v-4.285h2.654c1.395 0 2.187 1.155 2.187 2.142 0 .969-.792 2.143-2.187 2.143zm-.048-6.025h-4.471v12.5H99.2v-4.735h2.606c2.068 0 4.101-1.497 4.101-3.883 0-2.385-2.033-3.882-4.101-3.882zM77.424 28.583c-1.288 0-2.368-1.08-2.368-2.562 0-1.5 1.08-2.594 2.368-2.594 1.272 0 2.272 1.095 2.272 2.594 0 1.482-1 2.562-2.272 2.562zm2.142-5.881h-.063c-.42-.5-1.225-.951-2.24-.951-2.127 0-4.075 1.87-4.075 4.27 0 2.384 1.948 4.237 4.076 4.237 1.014 0 1.82-.451 2.239-.966h.063v.61c0 1.629-.87 2.498-2.27 2.498-1.145 0-1.854-.821-2.143-1.514l-1.628.677c.468 1.127 1.707 2.513 3.77 2.513 2.192 0 4.044-1.29 4.044-4.43v-7.637h-1.773v.693zM82.63 30h1.867V17.499H82.63v12.5zm4.622-4.124c-.047-1.644 1.273-2.481 2.224-2.481.742 0 1.37.37 1.58.902l-3.804 1.579zm5.8-1.418c-.355-.95-1.433-2.707-3.64-2.707-2.191 0-4.013 1.725-4.013 4.254 0 2.384 1.806 4.253 4.222 4.253 1.949 0 3.076-1.192 3.544-1.885l-1.45-.967c-.483.709-1.144 1.177-2.094 1.177s-1.627-.436-2.062-1.29l5.686-2.352-.192-.483zm-45.308-1.4v1.803h4.319c-.13 1.015-.468 1.756-.984 2.27-.629.63-1.612 1.323-3.335 1.323-2.659 0-4.736-2.143-4.736-4.801 0-2.658 2.078-4.801 4.736-4.801 1.434 0 2.481.564 3.254 1.29l1.273-1.274c-1.08-1.03-2.513-1.82-4.527-1.82-3.64 0-6.702 2.964-6.702 6.605 0 3.64 3.061 6.605 6.702 6.605 1.965 0 3.447-.645 4.607-1.853 1.193-1.192 1.563-2.867 1.563-4.221 0-.418-.032-.805-.096-1.127h-6.074zm11.079 5.525c-1.288 0-2.4-1.064-2.4-2.578 0-1.531 1.112-2.578 2.4-2.578 1.289 0 2.4 1.047 2.4 2.578 0 1.514-1.111 2.578-2.4 2.578zm0-6.832c-2.353 0-4.27 1.789-4.27 4.254 0 2.449 1.917 4.253 4.27 4.253 2.353 0 4.27-1.804 4.27-4.253 0-2.465-1.917-4.254-4.27-4.254zm9.313 6.832c-1.288 0-2.4-1.064-2.4-2.578 0-1.531 1.112-2.578 2.4-2.578 1.29 0 2.4 1.047 2.4 2.578 0 1.514-1.11 2.578-2.4 2.578zm0-6.832c-2.352 0-4.269 1.789-4.269 4.254 0 2.449 1.918 4.253 4.27 4.253 2.352 0 4.269-1.804 4.269-4.253 0-2.465-1.917-4.254-4.27-4.254z" fill="#fff"/><path fill-rule="evenodd" clip-rule="evenodd" d="M22.9 20.147v-.292L10.51 7.465l-.075.073c-.29.308-.462.786-.462 1.405v22.116c0 .62.172 1.098.462 1.405l.074.072 12.39-12.39z" fill="#00D9FF"/><path fill-rule="evenodd" clip-rule="evenodd" d="M22.899 19.855v.292l4.129 4.13.094-.051 4.893-2.78c1.397-.795 1.397-2.095 0-2.888l-4.893-2.781-.093-.053-4.13 4.13v.001z" fill="#FFCD00"/><path fill-rule="evenodd" clip-rule="evenodd" d="M10.435 32.464c.46.487 1.222.548 2.079.062l14.608-8.301L22.899 20 10.435 32.464z" fill="#FA3746"/><path fill-rule="evenodd" clip-rule="evenodd" d="M11.409 7.14h-.034c-.376.004-.7.143-.94.398L22.899 20l4.223-4.224-14.608-8.3c-.396-.225-.771-.334-1.105-.337z" fill="#00F076"/><path d="M43.935 12.176c.625-1.014.777-2.501.777-3.676v-.45h1.607v4.125h-2.384zm-1.733 0v2.122h1.006v-1.183h3.897v1.183h.972v-2.122h-.668V7.113H43.68v1.31c0 1.217-.126 2.63-.87 3.753h-.609zm6.466-2.104c0 1.766 1.336 3.144 3.102 3.144 1.767 0 3.102-1.378 3.102-3.144 0-1.716-1.335-3.06-3.102-3.06-1.766 0-3.102 1.344-3.102 3.06zm1.124 0c0-1.167.88-2.063 1.978-2.063 1.1 0 1.978.896 1.978 2.063 0 1.217-.879 2.147-1.977 2.147-1.1 0-1.979-.93-1.979-2.147zm5.833.017c0 1.766 1.217 3.127 3.102 3.127 1.073 0 1.843-.448 2.358-.972l-.575-.786c-.456.448-1.099.76-1.74.76-1.303 0-2.021-1.022-2.021-2.146 0-1.107.693-2.063 2.012-2.063.583 0 1.217.27 1.64.634l.523-.811c-.583-.567-1.428-.82-2.214-.82-1.809 0-3.085 1.335-3.085 3.077zm7.76 3.026h1.081V8.05h1.97v-.938h-5.022v.938h1.97v5.064zm3.744-.313c.363.254.743.414 1.2.414.87 0 1.285-.718 1.538-1.36l1.851-4.742h-1.14L69.613 9.8c-.135.39-.245.786-.245.786h-.017s-.144-.397-.338-.794l-1.277-2.68h-1.2l2.35 4.64c-.127.33-.296.525-.6.525-.28 0-.524-.178-.676-.296l-.482.82zm5.333.313h1.09V8.05h2.68v5.064h1.09V7.113h-4.86v6.002zm6.314 0h1.09v-2.52h2.748v2.52h1.082V7.113h-1.082v2.545h-2.747V7.113h-1.09v6.002zm6.019-3.043c0 1.766 1.335 3.144 3.102 3.144 1.766 0 3.102-1.378 3.102-3.144 0-1.716-1.336-3.06-3.102-3.06-1.767 0-3.102 1.344-3.102 3.06zm1.124 0c0-1.167.879-2.063 1.978-2.063s1.978.896 1.978 2.063c0 1.217-.88 2.147-1.978 2.147-1.1 0-1.978-.93-1.978-2.147z" fill="#fff"/></svg>