<svg width="135" height="40" fill="none" xmlns="http://www.w3.org/2000/svg"><path d="M130.275 40H4.732A4.732 4.732 0 010 35.278V4.728A4.735 4.735 0 014.732.002h125.543a4.738 4.738 0 014.724 4.458v31.089A4.734 4.734 0 01130.275 40z" fill="#000"/><path d="M30.146 19.79c-.029-3.224 2.64-4.792 2.763-4.865-1.512-2.204-3.855-2.505-4.679-2.529-1.968-.207-3.878 1.177-4.88 1.177-1.022 0-2.566-1.157-4.23-1.123-2.141.034-4.144 1.273-5.243 3.197-2.268 3.924-.576 9.69 1.596 12.862 1.086 1.554 2.356 3.288 4.018 3.227 1.626-.067 2.234-1.036 4.196-1.036 1.944 0 2.514 1.036 4.21.996 1.744-.027 2.843-1.56 3.892-3.127 1.255-1.78 1.76-3.534 1.78-3.624-.04-.013-3.388-1.29-3.422-5.154l-.001-.001zm-3.202-9.48c.874-1.094 1.472-2.581 1.306-4.09-1.265.056-2.848.875-3.76 1.944-.806.942-1.526 2.486-1.34 3.939 1.422.106 2.882-.717 3.794-1.794zm22.86 15.652l-1.126-3.475c-.119-.355-.343-1.191-.671-2.508h-.04c-.132.567-.343 1.402-.633 2.508l-1.107 3.475h3.577zm3.893 5.55h-2.273l-1.244-3.91h-4.326l-1.186 3.91h-2.213l4.287-13.311h2.648l4.307 13.311zm8.831-4.839c0-.933-.21-1.705-.632-2.31-.462-.632-1.081-.949-1.857-.949a2.22 2.22 0 00-1.432.524c-.428.35-.708.806-.84 1.374-.066.264-.099.48-.099.65v1.6c0 .697.214 1.286.642 1.768.429.48.985.721 1.669.721.803 0 1.429-.31 1.876-.928.449-.619.673-1.435.673-2.45zm2.173-.078c0 1.632-.443 2.923-1.331 3.87-.794.843-1.782 1.264-2.96 1.264-1.271 0-2.186-.453-2.741-1.362v5.036h-2.133V25.07a64.24 64.24 0 00-.079-3.155h1.876l.12 1.521h.04c.71-1.147 1.79-1.719 3.24-1.719 1.132 0 2.078.447 2.834 1.342.756.897 1.136 2.075 1.136 3.536H64.7zm8.869.078c0-.933-.21-1.705-.632-2.31-.462-.632-1.079-.949-1.856-.949-.526 0-1.004.177-1.433.524a2.42 2.42 0 00-.838 1.374c-.065.264-.1.48-.1.65v1.6c0 .697.215 1.286.642 1.768.428.48.984.721 1.67.721.804 0 1.43-.31 1.876-.928.448-.619.672-1.435.672-2.45zm2.175-.078c0 1.632-.444 2.923-1.331 3.87-.795.843-1.783 1.264-2.961 1.264-1.271 0-2.186-.453-2.742-1.362v5.036H66.58V25.07a65.04 65.04 0 00-.08-3.155h1.876l.12 1.521h.039c.71-1.147 1.79-1.719 3.24-1.719 1.132 0 2.078.447 2.837 1.342.754.897 1.134 2.075 1.134 3.536zm12.347 1.185c0 1.132-.395 2.054-1.183 2.765-.866.776-2.076 1.164-3.627 1.164-1.433 0-2.582-.276-3.449-.829l.494-1.777a5.94 5.94 0 003.082.83c.804 0 1.43-.182 1.875-.543.448-.362.674-.846.674-1.45a1.86 1.86 0 00-.554-1.364c-.37-.369-.98-.711-1.837-1.027-2.332-.87-3.498-2.14-3.498-3.813 0-1.092.412-1.986 1.235-2.685.823-.698 1.913-1.047 3.27-1.047 1.21 0 2.22.211 3.023.632l-.536 1.739c-.755-.409-1.606-.613-2.559-.613-.751 0-1.342.186-1.763.554a1.58 1.58 0 00-.536 1.206c0 .525.205.961.614 1.303.355.315 1.001.659 1.935 1.027 1.147.462 1.989 1 2.529 1.619.541.618.812 1.388.812 2.309zm7.072-4.266h-2.35v4.66c0 1.186.414 1.777 1.244 1.777.381 0 .698-.032.948-.098l.059 1.62c-.42.157-.973.236-1.66.236-.842 0-1.5-.258-1.975-.771-.474-.514-.711-1.376-.711-2.587v-4.838h-1.402v-1.6h1.402v-1.758l2.094-.633v2.39h2.351v1.602zm8.376 3.169c0-.878-.19-1.633-.572-2.264-.447-.762-1.087-1.143-1.917-1.143-.855 0-1.51.381-1.956 1.143-.383.63-.572 1.4-.572 2.305 0 .88.19 1.636.572 2.265.46.761 1.105 1.143 1.937 1.143.816 0 1.456-.39 1.918-1.163.393-.645.59-1.404.59-2.286zm2.212-.048c0 1.475-.422 2.686-1.264 3.633-.881.976-2.054 1.462-3.516 1.462-1.41 0-2.533-.467-3.369-1.4-.837-.936-1.255-2.115-1.255-3.536 0-1.488.432-2.706 1.293-3.653.864-.948 2.028-1.422 3.489-1.422 1.409 0 2.541.468 3.397 1.403.818.907 1.225 2.077 1.225 3.513zm6.937-2.845a3.741 3.741 0 00-.673-.058c-.75 0-1.331.282-1.739.85-.355.499-.532 1.131-.532 1.894v5.036h-2.133v-6.576c0-1.105-.021-2.114-.062-3.02h1.859l.078 1.836h.058c.226-.631.581-1.14 1.068-1.521a2.577 2.577 0 011.541-.514c.198 0 .376.013.534.038v2.034h.001zm7.506 1.917c.015-.633-.125-1.178-.414-1.639-.37-.594-.937-.89-1.699-.89-.698 0-1.265.29-1.698.87-.356.461-.568 1.015-.632 1.659h4.443zm2.035.553a5 5 0 01-.078.967h-6.4c.025.949.334 1.674.928 2.174.54.447 1.238.67 2.094.67.947 0 1.811-.15 2.589-.453l.334 1.48c-.908.396-1.981.593-3.219.593-1.488 0-2.657-.438-3.507-1.313-.848-.875-1.274-2.05-1.274-3.525 0-1.446.395-2.652 1.187-3.613.828-1.026 1.948-1.539 3.357-1.539 1.383 0 2.431.513 3.142 1.54.565.813.848 1.822.848 3.02l-.001-.001zM43.451 7.293c.446-.282 1.077-.514 1.894-.514 1.302 0 2.117.66 2.117 1.64 0 .815-.562 1.398-1.33 1.572v.02c.863.108 1.554.69 1.563 1.593 0 1.418-1.34 1.942-2.545 1.942-.641 0-1.32-.136-1.855-.447l.272-.922c.33.175.961.397 1.534.397.845 0 1.34-.407 1.34-1.038 0-.834-.846-1.038-1.562-1.038h-.516v-.894h.516c.757 0 1.34-.407 1.34-1 0-.534-.407-.854-1.079-.854-.495 0-1.038.204-1.397.398l-.291-.855zm8.29 3.835c-.845-.01-1.65.165-1.65.883 0 .466.3.68.68.68a.98.98 0 00.941-.65c.03-.087.03-.175.03-.262v-.651zm1.165 1.174c0 .427.02.844.078 1.135h-1.078l-.087-.524h-.03c-.28.368-.776.631-1.397.631-.95 0-1.485-.69-1.485-1.407 0-1.184 1.059-1.796 2.807-1.786v-.077c0-.311-.126-.825-.962-.825-.467 0-.952.146-1.272.35l-.232-.776c.35-.213.961-.417 1.708-.417 1.515 0 1.952.961 1.952 1.999v1.697h-.002zm4.92-3.592v.941h-1.933v3.787H54.7V8.71h3.126zm2.522 2.748c0 .116.01.223.029.33.126.484.544.834 1.058.834.758 0 1.204-.63 1.204-1.562 0-.835-.407-1.514-1.174-1.514-.496 0-.952.359-1.078.882-.02.097-.039.204-.039.302v.728zm-1.193-1.176c0-.62-.02-1.126-.039-1.572h1.048l.06.728h.02c.35-.534.902-.835 1.62-.835 1.089 0 1.992.933 1.992 2.408 0 1.708-1.078 2.533-2.155 2.533-.594 0-1.089-.252-1.331-.631h-.02v2.445h-1.194v-5.076h-.001zm6.978-1.572l.846 2.534c.097.291.203.65.27.911h.03c.067-.261.155-.62.252-.922l.738-2.524h1.272l-1.184 3.224c-.651 1.766-1.088 2.552-1.644 3.038-.475.408-.961.564-1.252.602l-.271-1c.204-.048.446-.155.69-.33.232-.146.493-.427.659-.748a.441.441 0 00.067-.214.601.601 0 00-.058-.233L64.81 8.709h1.323zm5.076 1.913h.561c.66 0 1.04-.263 1.04-.602 0-.34-.32-.564-.854-.564a2.42 2.42 0 00-1.165.33l-.264-.708c.526-.31 1.166-.456 1.77-.456.805 0 1.776.311 1.776 1.252 0 .603-.553.953-1.04 1.059v.029c.63.058 1.253.436 1.253 1.135 0 1.097-1.234 1.438-2.205 1.438-.61 0-1.243-.147-1.707-.418l.271-.767c.33.185.834.32 1.311.33.66 0 1.02-.282 1.02-.642 0-.505-.516-.66-1.186-.66h-.582v-.757.001zm5.717-1.913v1.699c0 .747-.03 1.252-.068 1.912h.039c.252-.553.387-.902.642-1.397l1.154-2.213h1.446v4.728h-1.135V11.75c0-.757.03-1.105.078-1.999h-.039c-.233.563-.389.902-.622 1.358-.36.7-.797 1.554-1.204 2.33H75.79V8.711h1.137V8.71zm8.531 0v.923h-1.416v3.805h-1.194V9.633h-1.419V8.71h4.03zm4.214 1.863c.01-.437-.186-1.155-.98-1.155-.738 0-1.05.67-1.099 1.155h2.08zm-2.079.836c.028.854.69 1.223 1.458 1.223.553 0 .942-.087 1.312-.212l.175.815c-.408.174-.971.301-1.651.301-1.534 0-2.438-.941-2.438-2.387 0-1.312.798-2.544 2.312-2.544 1.535 0 2.039 1.262 2.039 2.3 0 .223-.02.399-.039.505h-3.168zm8.424-.786h.494c.602 0 1.108-.165 1.108-.622 0-.378-.33-.581-1.03-.581-.242 0-.398.02-.572.038v1.165zm-.009 2.096c.192.02.34.02.572.02.543 0 1.204-.135 1.204-.698 0-.524-.523-.7-1.271-.7h-.504v1.379zm-1.165-3.95a12.605 12.605 0 011.73-.116c.797 0 2.224.105 2.224 1.192 0 .603-.466.942-.972 1.05v.018c.71.107 1.185.495 1.185 1.156 0 1.29-1.709 1.426-2.65 1.426-.603 0-1.234-.049-1.515-.058V8.768h-.001z" fill="#FEFEFE"/><defs><clipPath id="clip0"><path fill="#fff" d="M0 0h135v40H0z"/></clipPath></defs></svg>