<svg width="173" height="32" viewBox="0 0 173 32" fill="none" xmlns="http://www.w3.org/2000/svg">
<path d="M41.5309 15.5088C41.5309 16.4681 41.2247 17.2649 40.6119 17.918C39.9997 18.5714 39.0499 18.8981 38.0902 18.8981C37.1303 18.8981 36.3491 18.5766 35.7418 17.918C35.1444 17.27 34.8436 16.4681 34.8436 15.5088C34.8436 14.5693 35.1444 13.7679 35.7418 13.1194C36.3491 12.4611 37.1303 12.1396 38.0902 12.1396C39.0499 12.1396 39.9995 12.4663 40.6119 13.1194C41.2247 13.7731 41.5309 14.5693 41.5309 15.5088ZM41.4698 11.0044C40.4798 10.1506 39.2644 9.70956 37.8555 9.70956C36.2834 9.70956 34.7822 10.2612 33.7409 11.3431C32.6996 12.4251 32.189 13.8138 32.189 15.4678C32.189 17.1218 32.6996 18.5308 33.7409 19.6536C34.7822 20.7765 36.2629 21.3281 37.8555 21.3281C39.3054 21.3281 40.381 20.9094 41.4698 20.039V21.0626H44.0016V9.97486H41.4698V11.0044Z" fill="white"/>
<path fill-rule="evenodd" clip-rule="evenodd" d="M46.3781 21.2261C47.7054 21.2261 48.7262 20.6747 49.4411 19.572C49.7064 19.1432 49.9719 18.5103 50.1352 18.0815C50.3188 17.6118 50.5028 16.693 50.5844 16.2845C50.6458 16.0803 50.707 15.7539 50.7684 15.2841L50.8909 14.3449C50.9111 14.1814 50.9725 13.8343 51.0337 13.3034L51.1562 12.3437H53.6269V21.0626H56.2815V9.97486H48.8488L48.7672 10.7918C48.5425 12.9153 48.3179 14.5488 48.1137 15.7129C47.9096 16.8563 47.6033 17.7343 47.1743 18.3266C46.766 18.8779 46.2149 19.1637 45.5407 19.1637L45.6837 21.1442C45.9903 21.2056 46.2149 21.2261 46.3781 21.2261Z" fill="white"/>
<path d="M80.0504 12.017C82.6027 12.0375 84.0935 13.3645 84.0935 15.5087C84.0935 17.6934 82.562 19.0207 80.0504 19.0412V12.017ZM73.496 15.5087C73.496 13.3645 74.9865 12.0375 77.5388 12.017V19.0412C75.0274 18.98 73.496 17.6934 73.496 15.5087ZM86.6662 15.5289C86.6662 13.7731 86.0537 12.3847 84.849 11.3431C83.6442 10.3016 82.0311 9.7505 80.0504 9.68909V6.70802H77.5388V9.68909C75.5378 9.7505 73.9245 10.3016 72.7197 11.3431C71.5149 12.3847 70.9229 13.7731 70.9229 15.5087C70.9229 17.2444 71.5149 18.6328 72.7197 19.6536C73.9245 20.6747 75.5171 21.2261 77.5388 21.3077V24.2887H80.0504V21.3077C82.0718 21.2463 83.6644 20.6952 84.8692 19.6741C86.0739 18.6533 86.6662 17.2649 86.6662 15.5289Z" fill="white"/>
<path d="M60.2665 21.0626L66.4942 14.1405V21.0626H69.0669V9.97486H67.3927L61.1647 16.9788V9.97486H58.5715V21.0626H60.2665Z" fill="white"/>
<path d="M92.0918 21.0628V10.1386H93.8476V18.2655L100.892 10.1386H101.974V21.0628H100.218V12.9974L93.2147 21.0628H92.0918ZM112.008 10.1386H113.825V21.0628H112.008V16.3052H106.332V21.0628H104.514V10.1386H106.332V14.7331H112.008V10.1386ZM124.267 10.1386V11.711H120.592V21.0628H118.775V11.711H115.099V10.1386H124.267ZM125.929 21.0628V10.1386H127.685V18.2655L134.73 10.1386H135.812V21.0628H134.056V12.9974L127.052 21.0628H125.929ZM145.437 21.0628L141.251 15.8969L140.169 16.8767V21.0628H138.352V10.1386H140.169V14.6512L145.192 10.1386H147.703L142.558 14.7331L146.499 19.4293H148.132V24.7383H146.376V21.0628H145.437V21.0628ZM148.937 15.5906C148.937 13.9844 149.474 12.6366 150.55 11.5475C151.625 10.4312 152.993 9.87333 154.654 9.87333C156.301 9.87333 157.662 10.4312 158.738 11.5475C159.826 12.6636 160.371 14.0114 160.371 15.5906C160.371 17.2242 159.833 18.5854 158.758 19.6744C157.683 20.7771 156.314 21.3281 154.654 21.3281C153.007 21.3281 151.638 20.7771 150.55 19.6744C149.474 18.5854 148.937 17.2242 148.937 15.5906ZM158.533 15.5906C158.533 14.488 158.159 13.5419 157.41 12.7523C156.648 11.949 155.729 11.5475 154.654 11.5475C153.578 11.5475 152.659 11.949 151.897 12.7523C151.148 13.5419 150.774 14.488 150.774 15.5906C150.774 16.7203 151.148 17.68 151.897 18.4696C152.646 19.2592 153.565 19.6539 154.654 19.6539C155.743 19.6539 156.662 19.2592 157.41 18.4696C158.159 17.68 158.533 16.7203 158.533 15.5906ZM162.176 21.1649C161.971 21.1649 161.72 21.1308 161.42 21.0628L161.032 19.756H161.298L161.481 19.7765C161.631 19.7901 161.727 19.7969 161.767 19.7969C162.393 19.7969 162.877 19.5723 163.217 19.123C163.489 18.7963 163.714 18.3402 163.891 17.7551C164.109 17.156 164.272 16.523 164.381 15.8562L164.565 14.8147C164.592 14.6785 164.647 14.2906 164.728 13.6506L164.871 12.5072L164.993 11.3027L165.136 10.1386H171.671V21.0628H169.853V11.711H166.709L166.586 12.6707L166.464 13.712L166.341 14.6512C166.26 15.2093 166.212 15.536 166.198 15.6313L166.015 16.5298C165.987 16.7067 165.953 16.8767 165.912 17.0402L165.851 17.2649L165.81 17.4488C165.674 17.8842 165.538 18.2723 165.402 18.6126C165.225 19.0619 165.048 19.4156 164.871 19.6744C164.245 20.6682 163.346 21.1649 162.176 21.1649V21.1649Z" fill="white"/>
<path fill-rule="evenodd" clip-rule="evenodd" d="M14.3294 31.9289C12.1693 31.7264 10.1442 31.1189 8.25412 30.1064C4.67645 28.1488 1.90883 24.8411 0.626272 20.6559C-0.588783 16.4707 0.0187442 12.1505 1.97633 8.64039C4.54145 3.91518 9.46917 0.67503 14.7344 0H14.8694L16.2195 3.37515C16.152 3.37515 16.0845 3.37515 16.0845 3.37515C11.6293 3.64516 7.17407 6.27778 5.01397 10.2605C3.4614 13.0281 3.05638 16.4032 4.00142 19.6434C4.94647 22.951 7.17407 25.5161 9.94169 27.0012C11.4268 27.8113 13.0468 28.2838 14.7344 28.4863C18.4471 28.8238 21.8897 27.6087 24.5899 25.4486C24.7249 25.3136 24.8599 25.2461 24.9949 25.1111L26.3449 28.4863C23.0373 30.9839 18.7846 32.334 14.3294 31.9289ZM17.9746 7.89786H13.7219L8.11911 21.736H11.7643L15.882 11.003L19.9996 21.736H23.6448L17.9746 7.89786Z" fill="white"/>
</svg>
